<svg xmlns="http://www.w3.org/2000/svg" viewBox="0 0 40 40" fill="currentColor"><path d="m8.18 11.486-.03.014c-.15.141-.15.775-.15.775v17.79c0 .38.21.733.571.916l10.956 5.892c.15.085.33.127.51.127s.361-.042.527-.127l10.865-5.892c.36-.183.571-.536.571-.916V12.26s0-.634-.18-.747l-.166-.127-.796-.437-4.043-2.199-.18-.084V6.919C26.635 4.692 23.87 3 20.038 3c-3.833 0-6.583 1.706-6.583 3.933V8.61m6.583-3.481c2.675 0 4.373 1.07 4.373 1.818 0 .747-1.698 1.818-4.373 1.818-2.675 0-4.374-1.071-4.374-1.818 0-.747 1.729-1.818 4.374-1.818Zm-4.374 4.778a9.916 9.916 0 0 0 4.374.959 9.542 9.542 0 0 0 4.373-.959v.212c0 .76-1.698 1.832-4.373 1.832-2.675 0-4.374-1.071-4.374-1.818v-.226Zm3.277 8.726v15.52l-8.717-4.709V14.01l8.716 4.567v.07-.013Zm1.112-1.819-7.65-4.045-.992-.494-.12-.056 2.3-1.269c.6 1.819 3.17 3.101 6.462 3.101 3.29 0 5.77-1.24 6.432-3.016l2.164 1.198h.015l-8.581 4.595-.03-.014Zm9.783 12.616-8.656 4.737v-15.52l8.656-4.652V29.43Z"></path></svg>