<svg xmlns="http://www.w3.org/2000/svg" viewBox="0 0 40 40" fill="currentColor"><path d="M10.485 36c-.332 0-.66-.102-.942-.304a1.56 1.56 0 0 1-.638-1.546l1.674-9.612-7.093-6.811a1.554 1.554 0 0 1-.406-1.62c.19-.576.686-.988 1.295-1.075l9.8-1.403 4.386-8.748A1.597 1.597 0 0 1 20 4c.616 0 1.167.338 1.439.881l4.383 8.746 9.803 1.404c.609.087 1.106.5 1.295 1.076.19.576.035 1.197-.406 1.62l-7.091 6.808 1.673 9.615a1.56 1.56 0 0 1-.64 1.546 1.614 1.614 0 0 1-1.69.12l-8.764-4.538-8.77 4.539a1.624 1.624 0 0 1-.747.183Z"></path></svg>