<svg width="33" height="40" viewBox="0 0 33 40" xmlns="http://www.w3.org/2000/svg"><g fill-rule="nonzero" stroke="currentColor" fill="none" style="mix-blend-mode: darken;"><path stroke-width="1.727" fill="#FFF" d="M1.184 9.433l15.224-7.281 15.59 7.194V30.49L17.418 39 1.184 30.577z"></path><path d="M23.23 3.544C22.864 2.141 19.925 1 16.526 1c-3.675 0-6.798 1.228-6.89 2.895 0 0 .184 4.124.184 4.211 0 2.018 3.307 3.422 6.798 3.422 3.582 0 6.797-1.404 6.797-3.422v-3.07s.184-.965-.183-1.492z" stroke-width="1.152" fill="#FFF"></path><path d="M10.094 4.334c.092-1.58 2.94-2.895 6.43-2.895 3.491 0 6.34 1.316 6.431 2.895.092 1.667-2.756 2.983-6.43 2.983-3.675 0-6.523-1.404-6.43-2.983h0z" stroke-width="1.152"></path><path stroke-width="1.727" d="M2 10l15 7.222V39M17 17l14.63-7.122"></path></g></svg>