<svg display="block" viewBox="0 0 28 27" xmlns="http://www.w3.org/2000/svg"><path d="M13.725 23.033V0c-1.098 0-1.647 1.102-1.647 1.102L8.84 7.659 1.647 8.761S.44 8.927.11 9.973c-.33 1.047.549 1.929.549 1.929l5.27 5.18-1.372 7.163s-.22 1.212.659 1.873c.878.662 1.976.11 1.976.11l6.533-3.195z" fill="#FFCF00"></path><path d="M27.396 9.973c-.33-1.046-1.537-1.212-1.537-1.212L18.667 7.66l-3.294-6.557S14.823 0 13.725 0v23.033l6.644 3.25s1.098.552 1.976-.11c.879-.66.659-1.873.659-1.873l-1.373-7.163 5.271-5.18c-.055-.055.823-.937.494-1.984z" fill="#CCC"></path></svg>