<svg xmlns="http://www.w3.org/2000/svg" width="36" height="36" viewBox="0 0 36 36"><path d="M13.81 12.333l-2.833 11.334h11.216l2.834-11.334H13.81zm.945-3.777H25.97l1.53-6.124a1.89 1.89 0 013.668.914l-1.303 5.21h3.245c1.047 0 1.889.846 1.889 1.889a1.887 1.887 0 01-1.889 1.888h-4.19l-2.833 11.334h7.023c1.047 0 1.889.846 1.889 1.888a1.887 1.887 0 01-1.889 1.89h-7.967l-1.534 6.123a1.888 1.888 0 11-3.66-.914l1.299-5.21H10.033l-1.534 6.124a1.888 1.888 0 11-3.66-.914l1.299-5.21h-3.25a1.89 1.89 0 010-3.777h4.194l2.834-11.334H2.889a1.89 1.89 0 010-3.777h7.971l1.534-6.124a1.884 1.884 0 012.285-1.375 1.883 1.883 0 011.375 2.29l-1.3 5.209z" fill="currentColor" stroke="#FFF" fill-rule="evenodd"></path></svg>