<svg xmlns="http://www.w3.org/2000/svg" width="20" height="18" viewBox="0 0 20 18"><path d="M16.84 8.417L10 15.204 3.16 8.417A3.67 3.67 0 012 5.739C2 3.677 3.71 2 5.815 2a3.82 3.82 0 012.754 1.159l1.43 1.467 1.433-1.467A3.818 3.818 0 0114.186 2C16.289 2 18 3.677 18 5.739a3.673 3.673 0 01-1.16 2.678M9.986 18l.014-.014.014.014 8.223-8.116-.018-.019a5.678 5.678 0 001.78-4.126C20 2.569 17.398 0 14.187 0A5.829 5.829 0 0010 1.762 5.827 5.827 0 005.815 0C2.604 0 0 2.569 0 5.739a5.68 5.68 0 001.782 4.126" fill="currentColor" fill-rule="evenodd"></path></svg>