<svg xmlns="http://www.w3.org/2000/svg" viewBox="0 0 40 40" fill="currentColor"><path d="M36.972 26.744c-.135-3.129-.322-7.406-5.725-7.406h-7.441V14.89a1.257 1.257 0 0 0 .926-.502c2.947-4.005 0-7.075-3.16-10.315l-.671-.697a1.308 1.308 0 0 0-1.835 0l-.671.697c-3.143 3.24-6.108 6.31-3.16 10.315a1.258 1.258 0 0 0 .926.502v4.465H8.753c-5.402 0-5.59 4.252-5.725 7.406v.68a3.175 3.175 0 0 0 2.242 3.462c.098.029.197.048.298.06v4.761A1.276 1.276 0 0 0 6.816 37H33.15a1.273 1.273 0 0 0 1.274-1.276v-4.77c.1-.018.2-.04.297-.068a3.169 3.169 0 0 0 2.252-3.461v-.68ZM19.983 6.08c2.999 3.113 4.018 4.482 3.033 6.25H16.95c-.986-1.768.034-3.137 3.032-6.25Zm-1.274 8.81h2.548v4.448H18.71V14.89ZM5.542 26.855c.162-3.682.459-4.966 3.177-4.966h22.494c2.718 0 3.016 1.284 3.177 4.966v.697c0 .749-.246.85-.416.85a2.207 2.207 0 0 1-2.098-.756 3.681 3.681 0 0 0-3.169-1.956 3.7 3.7 0 0 0-3.185 2.007 1.088 1.088 0 0 1-.91.646 1.213 1.213 0 0 1-1.019-.672 4.393 4.393 0 0 0-3.448-2.143h-.289a4.388 4.388 0 0 0-3.466 2.118 1.215 1.215 0 0 1-1.02.672 1.07 1.07 0 0 1-.908-.647 3.706 3.706 0 0 0-3.186-2.007 3.676 3.676 0 0 0-3.185 1.982 2.2 2.2 0 0 1-2.124.8c-.17-.052-.45-.137-.416-.851l-.009-.74Zm2.549 7.594v-3.742a4.248 4.248 0 0 0 2.2-1.794 1.14 1.14 0 0 1 .96-.672 1.188 1.188 0 0 1 .976.689 3.562 3.562 0 0 0 3.135 1.956 3.726 3.726 0 0 0 3.245-1.999 1.861 1.861 0 0 1 1.36-.85 1.858 1.858 0 0 1 1.358.85 3.732 3.732 0 0 0 3.245 1.999 3.557 3.557 0 0 0 3.135-1.956 1.19 1.19 0 0 1 .977-.689 1.138 1.138 0 0 1 .96.672 4.248 4.248 0 0 0 2.234 1.794v3.742H8.09Z"></path></svg>