<svg width="28" height="38" viewBox="0 0 34 46" fill="none" xmlns="http://www.w3.org/2000/svg"><path d="M32.087 28.4892L32.2688 27.5059L31.2855 27.3241L29.9732 27.0815L30.1789 25.969C30.3466 25.0621 29.7477 24.1915 28.8408 24.0238L22.5036 22.8521C21.5968 22.6845 20.7262 23.2833 20.5585 24.1902L20.3528 25.3027L17.7318 24.8181L17.9375 23.7056C18.1052 22.7987 17.5063 21.9281 16.5995 21.7605L10.2623 20.5888C9.3554 20.4211 8.48481 21.02 8.31714 21.9268L8.13533 22.9101L8.13822 22.9106L8.11433 23.0399L6.79988 22.7968L5.81655 22.615L5.63474 23.5983L2.91816 38.2908L2.73634 39.2742L3.71968 39.456L28.2053 43.9833L29.1886 44.1651L29.3704 43.1818L32.087 28.4892Z" fill="white" stroke="#757575" stroke-width="2"></path><path d="M28.818 4.47443L28.7381 3.47762L27.7413 3.55744L26.4111 3.66396L26.3208 2.53621C26.2472 1.61692 25.4427 0.931754 24.5235 1.00537L18.0994 1.51977C17.1801 1.59338 16.4949 2.39783 16.5686 3.31712L16.6589 4.44487L14.002 4.65762L13.9117 3.52986C13.8381 2.61056 13.0336 1.92541 12.1143 1.99902L5.69028 2.51343C4.77099 2.58704 4.08583 3.39149 4.15944 4.31077L4.23926 5.30763L4.24219 5.30739L4.25267 5.43829L2.92018 5.54499L1.92337 5.62481L2.00319 6.62162L3.19582 21.5155L3.27564 22.5123L4.27244 22.4325L29.0936 20.4449L30.0904 20.3651L30.0106 19.3683L28.818 4.47443Z" fill="white" stroke="#757575" stroke-width="2"></path></svg>